<mxfile host="app.diagrams.net" modified="2023-10-11T09:27:23.090Z" agent="Mozilla/5.0 (Macintosh; Intel Mac OS X 10_15_7) AppleWebKit/537.36 (KHTML, like Gecko) Chrome/117.0.0.0 Safari/537.36" version="21.7.5" etag="QZ-GlBKhtcwkPiYBd7W7" type="github">
  <diagram name="Page-1" id="RTy0V0vr-VwOnYvI-5DO">
    <mxGraphModel>
      <root>
        <mxCell id="0" />
        <mxCell id="1" parent="0" />
      </root>
    </mxGraphModel>
  </diagram>
</mxfile>
